<svg width="455" height="455" viewBox="0 0 455 455" fill="none">
<path d="M227.5 3.05176e-05H331.25C336.773 3.05176e-05 341.25 4.47718 341.25 10V103.75C341.25 109.273 336.773 113.75 331.25 113.75H227.5V3.05176e-05Z" fill="#080708"/>
<path d="M227.5 227.5H331.25C336.773 227.5 341.25 231.977 341.25 237.5V331.25C341.25 336.773 336.773 341.25 331.25 341.25H227.5V227.5Z" fill="#080708"/>
<path d="M113.75 123.75C113.75 118.227 118.227 113.75 123.75 113.75H227.5V227.5H123.75C118.227 227.5 113.75 223.023 113.75 217.5V123.75Z" fill="#E6E8E6"/>
<path d="M113.75 351.25C113.75 345.727 118.227 341.25 123.75 341.25H227.5V455H123.75C118.227 455 113.75 450.523 113.75 445V351.25Z" fill="#E6E8E6"/>
<rect x="341.25" y="113.75" width="113.75" height="113.75" rx="10" fill="#80A5FF"/>
<rect y="227.5" width="113.75" height="113.75" rx="10" fill="#3772FF"/>
<rect x="227.5" y="113.75" width="113.75" height="113.75" rx="56.875" fill="#DF2935"/>
<rect x="113.75" y="227.5" width="113.75" height="113.75" rx="56.875" fill="#FDCA40"/>
</svg>
