<svg id="Layer_1" data-name="Layer 1" xmlns="http://www.w3.org/2000/svg" viewBox="0 0 1587.06383 1664.23659">
  <path d="M1084.3648,1549.55585c-177.68352-173.81259-363.06439-342.79924-515.17931-540.34508-40.29432-52.32819-78.80572-106.43452-112.27269-163.43292-62.64668-59.8134-49.82305-105.43421,38.47247-136.86084,15.13569,7.56308,30.27139,15.12537,45.40788,22.68845,89.3729,18.69278,164.93934,118.05683,261.98099,111.73797,72.37563-4.71233,115.88698-71.27522,156.1225-122.87165,47.7263-61.20303,111.50915-171.28124,202.71025-168.73717,148.65476,4.14742,114.81993,143.53405,97.36105,222.23807-59.5965,268.66056-156.76924,528.07603-213.65483,797.22522-10.40192,49.21603,66.9538,69.48197,84.78611,22.9411,70.00557-182.70968,116.06813-374.76535,166.50376-563.66915,35.16963-131.72344,117.02315-314.59123,65.2988-452.4786-40.41032-107.72403-148.8089-146.35859-254.9709-116.91033-57.37103,15.91433-101.54978,48.91888-143.85742,90.39783-26.29082,25.77597-45.07656,58.37452-70.98919,83.92802-16.52452,33.94209-43.19274,55.3585-80.00386,64.24923-31.56726,31.0683-62.72136,31.07306-93.46311,.01351-113.89034-29.69377-230.14757-172.94894-358.13754-114.42108-117.48477,53.72496-70.84379,185.47224-23.89612,272.40198,163.78569,303.26846,440.62271,535.93865,686.10539,770.8478,46.71566,44.70234,107.17184-34.43708,61.67577-78.94238h0Z" fill="#231f20"/>
  <path d="M604.89063,691.31829c-83.42985,78.43627-157.4438,170.46526-188.7004,281.98951-4.9189,17.55105,19.58185,37.47058,31.06115,18.14535,55.11458-92.78538,109.00083-184.64673,187.06924-260.48808,22.35792-21.72071-6.16631-61.51766-29.42999-39.64678h0Z" fill="#231f20"/>
  <path d="M756.58128,740.16566c-55.51026,36.24304-104.19873,67.17706-149.16803,117.20669-42.71603,47.52131-74.99041,104.32188-94.12813,165.25238-7.61393,24.23936,24.10667,37.20997,36.20252,15.06021,55.05976-100.82279,123.27368-214.19987,217.48046-283.52691,9.11002-6.7034-1.07261-20.07446-10.38682-13.99237h0Z" fill="#231f20"/>
  <path d="M1215.58451,481.12918c-100.89748,127.87795-201.79416,255.75589-302.69164,383.63304-88.20733,111.79438-192.92568,222.17531-257.32031,349.55429-4.47715,8.85418,7.93492,18.4576,15.44476,12.06645,108.66237-92.47075,191.54797-220.46787,279.37949-332.31867,100.59953-128.11074,201.19906-256.22069,301.79859-384.33143,18.46555-23.51555-18.0667-52.10651-36.6109-28.60368h0Z" fill="#231f20"/>
  <path d="M1277.44779,707.71887c-155.53376,193.26097-351.82345,373.85721-463.03148,597.9648-5.74918,11.58655,10.8246,19.51273,18.63716,10.88737,167.64708-185.0869,326.66801-383.84359,483.29345-578.46081,19.92429-24.75739-18.9661-55.15908-38.89913-30.39136h0Z" fill="#231f20"/>
  <path d="M1187.25494,1082.1672c-86.13998,128.96168-198.55965,237.47308-281.16956,369.07815-9.72021,15.48449,11.71765,33.29535,22.88151,17.8768,90.79112-125.38791,204.12371-232.8712,291.4666-361.03279,15.21038-22.3182-18.13105-48.44932-33.17855-25.92216h0Z" fill="#231f20"/>
  <path d="M233.19294,1546.96332c-48.36907-11.68984-90.22145-41.14843-130.76763-69.99683-19.52703-13.89306-40.05278-29.03034-48.78461-51.34774-15.80389-40.39284,18.94703-88.45681,61.8164-95.05693,42.86937-6.59932,85.83726,20.50827,108.34694,57.58397-9.20298-24.93854-9.52953-53.0512-.90894-78.19632,8.76917-25.57734,31.84534-50.06935,58.63274-46.3915,10.29227,1.41346,19.7201,6.90204,27.24743,14.06229,31.15967,29.63895,27.6725,79.79649,18.32174,121.77202-11.00496,49.39798-26.9026,97.70428-47.38465,143.98375" fill="#231f20"/>
  <path d="M1319.07532,233.20571c-21.2154-70.36707-36.99148-160.0848,20.49-205.88279,8.48552-6.76061,18.99708-12.18562,29.76369-10.84764,35.96416,4.46841,31.98518,69.23726,66.6916,79.67096,31.0969,9.34917,57.07944-35.04728,89.28629-30.91019,22.52716,2.89366,35.28563,30.11328,30.57887,52.33216-4.70756,22.21968-21.5054,39.70796-38.56543,54.70223-49.00946,43.07277-106.4957,76.46346-168.19292,97.69237" fill="#231f20"/>
</svg>