<svg width="501" height="500" viewBox="0 0 501 500" fill="none">
<path d="M59.7106 0L125.514 39.4333L191.244 0H230.121L125.519 62.753L20.8025 0H59.7106Z" fill="#E6E8E6"/>
<path d="M441.253 0H480.161L375.448 62.7513L270.736 0H309.644L375.448 39.435L441.253 0Z" fill="#E6E8E6"/>
<path d="M0.482422 59.251V35.9347L125.514 110.861L250.412 35.932L375.448 110.863L500.483 35.9337L500.482 59.25L375.448 134.179L250.417 59.2517L125.519 134.181L0.482422 59.251Z" fill="#E6E8E6"/>
<path d="M0.482422 130.679V107.363L125.514 182.29L250.412 107.36L375.448 182.291L500.483 107.362L500.482 130.678L375.448 205.608L250.417 130.68L125.519 205.609L0.482422 130.679Z" fill="#E6E8E6"/>
<path d="M0.482422 202.107V178.791L125.514 253.717L250.412 178.788L375.448 253.719L500.483 178.79L500.482 202.106L375.448 277.035L250.417 202.108L125.519 277.037L0.482422 202.107Z" fill="#E6E8E6"/>
<path d="M0.482422 273.535V250.219L125.514 325.146L250.412 250.216L375.448 325.147L500.483 250.218L500.482 273.534L375.448 348.464L250.417 273.536L125.519 348.465L0.482422 273.535Z" fill="#E6E8E6"/>
<path d="M0.482422 344.963V321.647L125.514 396.574L250.412 321.644L375.448 396.575L500.483 321.646L500.482 344.962L375.448 419.892L250.417 344.964L125.519 419.893L0.482422 344.963Z" fill="#E6E8E6"/>
<path d="M0.482422 416.391V393.075L125.514 468.002L250.412 393.072L375.448 468.003L500.483 393.074L500.482 416.39L375.448 491.32L250.417 416.392L125.519 491.321L0.482422 416.391Z" fill="#E6E8E6"/>
<path d="M0.482422 487.819V464.503L59.7165 500H20.8084L0.482422 487.819Z" fill="#E6E8E6"/>
<path d="M270.742 500L250.417 487.82L230.115 500H191.238L250.412 464.5L309.65 500H270.742Z" fill="#E6E8E6"/>
<path d="M500.483 464.502L441.247 500H480.155L500.482 487.818L500.483 464.502Z" fill="#E6E8E6"/>
</svg>
