
<svg id="Layer_1" data-name="Layer 1" xmlns="http://www.w3.org/2000/svg" viewBox="0 0 16.42133 24.1249">
  <path d="M4.53193,9.14624c-.93097,.03926-1.84444,.07778-2.75522,.11618-.33537-.21214-.62017-.40442-.9201-.57967C.06077,8.21778-.10524,7.60731,.05534,6.84273c.3467-1.65079,.97691-3.20229,2.52051-4.36385C4.69492,.88427,7.13108-.11954,10.14941,.01145c2.16097,.09378,5.15391,1.52274,5.91449,3.72812,.94889,2.75144-.01582,6.16064-2.60472,8.10856-1.81488,1.36554-2.62973,3.04431-2.80863,4.98787-.01887,.20496-.06876,.40805-.11931,.69848h-3.05809c-.38414-.27756-.8822-.63745-1.36076-.98324-.37359-.97935-.21811-1.9055,.17043-2.80064,.72721-1.67543,1.80266-3.1842,3.33143-4.47954,.77292-.65491,1.54466-1.33264,2.15806-2.08521,1.60018-1.96324-.07413-2.90177-1.95924-3.0634-1.54553-.13251-2.88874,.29829-3.59743,1.54897-.34222,.60394-.64794,1.22207-.94908,1.84054-.2445,.50215-.45751,1.01438-.73461,1.63428Zm7.61478-4.72397l.02727,.03216-.03387-.02603,.0066-.00613ZM3.05552,7.67979c.11393-.12626,.14784-.14835,.15609-.17556,.04445-.14661,.07529-.29608,.12391-.44169,.60181-1.80257,1.5118-3.41365,3.74699-4.2967,1.81261-.7161,4.39646-.1887,5.34798,1.17692,.69318,.99485,.73818,2.05822,.04973,3.03973-.49153,.70076-1.15606,1.33995-1.846,1.92734-1.72354,1.46737-3.15716,3.06858-3.9138,5.02491-.27782,.71832-.52145,1.43731-.23864,2.23549h2.20428c.07931-.41503,.18315-.79633,.21977-1.18182,.09228-.97144,.57465-1.81607,1.27373-2.58007,.46612-.5094,.99729-.98043,1.51235-1.45943,1.10344-1.02619,2.30269-1.99335,3.30598-3.07987,2.25872-2.44607,.32523-6.7741-4.22657-7.38577C6.90726-.03599,2.46338,2.14227,1.18645,4.8468c-.41847,.88632-.87625,1.79013-.60953,2.83299H3.05552ZM9.63493,3.64282c-.40148-.43315-.53129-1.0042-1.40123-.69793,.40047,.3109,.44104,.94669,1.40123,.69793Zm1.64389,9.73093c-.26446-.18791-.5149-.36586-.8231-.58485-.13734,.2179-.21369,.33905-.31259,.49595,.294,.20433,.55306,.38437,.87593,.60876,.10617-.21249,.17004-.34031,.25976-.51986Zm.03456-1.40548c-.24782,.23971-.37281,.36061-.47905,.46338,.23227,.26316,.42053,.47644,.66536,.75383,.20834-.28909,.31202-.43294,.42406-.58841-.21026-.21661-.38405-.39564-.61038-.6288Zm-.78931,3.35716c-.03789-.60652-.53835-.74781-.95344-1.06792-.1418,.68837,.43715,.77776,.95344,1.06792ZM8.48641,3.79917c-.29892-.30402-.55587-.56536-.82172-.83574-.17644,.10869-.2586,.1593-.4124,.25404,.34175,.27458,.421,.78044,1.23413,.5817Zm-1.78196-.55795q.02373,.6707,.9312,.9343c-.37852-.37978-.59831-.6003-.9312-.9343Zm2.75738,12.71083c-.08719,.07802-.17439,.15604-.26158,.23405,.31622,.23259,.63243,.46518,.94864,.69777,.07393-.0609,.14787-.1218,.2218-.18269-.30295-.24971-.60591-.49942-.90886-.74913Zm.71269,.06743c.07994-.07781,.15987-.15562,.23981-.23343-.32195-.22157-.6439-.44313-.96585-.6647-.07319,.0661-.14638,.1322-.21958,.1983,.31521,.23328,.63041,.46655,.94562,.69983Zm1.91824-4.77026c.47268,.03843,.47891,.63502,1.13447,.25484-.24577-.2305-.46234-.43361-.69557-.65235-.13504,.1223-.20659,.1871-.4389,.39751Zm.4415,.91049q-.41597-.51141-.8495-.59392,.14534,.45975,.8495,.59392ZM9.99898,2.96135l-.22454,.1252c.0541,.35094,.22402,.63467,.97991,.80657-.33514-.41341-.54526-.67259-.75537-.93177Zm3.82714,6.69671c-.23121,.72141-.12871,.8271,.62464,.77031-.19418-.23947-.36029-.44431-.62464-.77031Zm.01425,1.27877c-.22558-.19719-.45116-.39437-.74618-.65226q-.02874,.63444,.74618,.65226ZM3.11681,8.03071c-.0811,.06015-.1622,.12031-.24329,.18046,.30073,.24529,.46486,.63357,.9063,.67402-.21322-.2748-.43811-.56464-.663-.85448Zm-2.10121,.02775c-.05849,.0534-.11698,.10679-.17546,.16019,.32035,.22164,.6407,.44329,.96104,.66493,.04923-.04551,.09845-.09102,.14768-.13653l-.93326-.68859Zm2.85838-.99376c-.06889,.04889-.13778,.09778-.20666,.14667,.28464,.2441,.56929,.48821,.85394,.73231,.06569-.04737,.13138-.09474,.19707-.14211-.11063-.36642-.3843-.61754-.84434-.73688Zm.2898-.85326c-.08355,.59578,.42567,.7109,.76032,1.08991,.16287-.65798-.37563-.75669-.76032-1.08991Zm1.23403-1.82438c-.12654,.46481,.34479,.54811,.67607,.91021,.14749-.62741-.35778-.71892-.67607-.91021Zm5.18241,10.17389c.07318-.06593,.14637-.13185,.21956-.19778-.28811-.21344-.31669-.68132-1.11551-.54987,.35297,.29454,.62446,.52109,.89596,.74765ZM5.16381,6.43734c.05034-.04556,.10068-.09111,.15102-.13667q-.45608-.53438-1.02299-.50694c.33189,.24497,.60193,.44429,.87197,.64361Zm.32333-.61607c-.03836-.63115-.0406-.6296-.88293-.75798,.37944,.32575,.63119,.54186,.88293,.75798Zm1.22866-1.41899c-.20495-.19696-.4099-.39392-.77598-.74571q.15414,.62139,.77598,.74571Zm-4.61671,3.70725c-.06295,.04528-.12591,.09056-.18886,.13584,.26429,.23084,.52857,.46169,.79286,.69253,.05867-.04753,.11735-.09506,.17602-.14258-.26001-.22859-.52001-.45719-.78002-.68578Zm12.39273,1.16229c-.08365,.02897-.16729,.05794-.25094,.08691,.12974,.19308,.25948,.38615,.41579,.61878,.43115-.40231,.07517-.5391-.16485-.70569Zm-7.34939,7.20927c-.08141,.06501-.16283,.13002-.24424,.19504,.30097,.20459,.60194,.40917,.90292,.61376,.03368-.03164,.06736-.06327,.10104-.09491-.25324-.23796-.50648-.47592-.75971-.71388Zm1.80544,.108q.37348,.56739,.88751,.53632c-.32804-.19823-.60777-.36728-.88751-.53632Zm2.43811-12.40641c.07429-.03588,.14857-.07175,.22286-.10763-.16179-.2387-.08756-.60961-.77154-.69565,.22621,.33119,.38745,.56724,.54868,.80328Zm-2.74136,13.13646c.04084-.02999,.08168-.05998,.12252-.08997l-.62-.54842c-.04146,.03043-.08292,.06085-.12437,.09128,.20728,.18237,.41456,.36474,.62184,.54711ZM4.24029,8.4231c.05674-.04454,.11348-.08908,.17021-.13361-.22121-.1395-.44241-.279-.66362-.4185-.03463,.03609-.06925,.07219-.10388,.10828l.59728,.44384Zm10.83716,.15659c-.12058,.19788-.19491,.26803-.20094,.34185-.00913,.11174,.02929,.22604,.0475,.33925,.10533-.07274,.21066-.14547,.31599-.21821-.04049-.11531-.08099-.23061-.16256-.46288Zm.34295-.52605c-.01602,.17737-.01986,.2199-.02371,.26244l.0393,.00176c-.00253-.04281-.00505-.08562-.01559-.2642Z"/>
  <path d="M11.17962,23.86523c-1.73178,.32043-3.25172,.61461-4.4908-.87633-.26254-.72783-.25039-1.67303,.01869-2.73032,1.61302-.01346,3.34579-.71741,4.47211,.82263v2.78402Zm-.37706-1.40145l.03249,.03893-.04579-.02825c-.06567-.06611-.13134-.13222-.19701-.19833-.11082-.11656-.22163-.23312-.33244-.34968-.0404,.03256-.0808,.06511-.12119,.09767,.13926,.09383,.27853,.18766,.41779,.28149,.08205,.05273,.16411,.10546,.24616,.15818Zm-3.74769,.3005c.87716-.03697,1.70098-.07169,2.55418-.10765v-2.10611h-2.55418v2.21376Zm3.31026-1.92604c-.09491,.03119-.18982,.06238-.28473,.09357,.1755,.26131,.351,.52261,.63219,.94127,.36188-.65901-.12384-.79875-.34745-1.03484Zm-2.05831,2.9163c-.05279-.46853-.2669-.75215-1.02551-.6217,.42403,.25707,.72477,.43938,1.02551,.6217Zm.52365-.70902c-.06294,.04815-.12588,.09631-.18882,.14446,.20519,.21705,.33437,.51162,.95096,.51327-.32368-.27933-.54291-.46853-.76214-.65773Zm.88049-.01603c-.0562,.04839-.11239,.09677-.16859,.14516,.24296,.20535,.35745,.5587,1.01243,.47842-.34371-.25399-.59378-.43879-.84385-.62358Zm.99038,.2654c.07183-.05079,.14366-.10157,.21548-.15235l-.59135-.42723c-.04641,.03706-.09281,.07413-.13922,.11119,.1717,.15613,.34339,.31226,.51508,.46839Z"/>
</svg>